<svg width="304" height="400" viewBox="0 0 304 400" fill="none" xmlns="http://www.w3.org/2000/svg">
<path d="M1.22998 3.12405H285.46C288.312 3.12405 291.047 4.26511 293.065 6.29648C295.083 8.32785 296.217 11.0833 296.22 13.9575V388.441C296.22 391.317 295.086 394.075 293.068 396.108C291.051 398.142 288.314 399.284 285.46 399.284H1.22998V3.12405Z" fill="#10B981"/>
<g opacity="0.3">
<path opacity="0.3" d="M1.22998 3.12405H285.46C288.312 3.12405 291.047 4.26511 293.065 6.29648C295.083 8.32785 296.217 11.0833 296.22 13.9575V388.441C296.22 391.317 295.086 394.075 293.068 396.108C291.051 398.142 288.314 399.284 285.46 399.284H1.22998V3.12405Z" fill="black"/>
</g>
<path d="M288.05 15.3885H130.35V399.274H288.05V15.3885Z" fill="#E0E0E0"/>
<path d="M0 0H264.16C267.014 0 269.751 1.14243 271.768 3.17598C273.786 5.20953 274.92 7.96762 274.92 10.8435V388.441C274.92 391.317 273.786 394.075 271.768 396.108C269.751 398.142 267.014 399.284 264.16 399.284H0V0Z" fill="#10B981"/>
<path d="M28.26 400C28.11 400 28 310.45 28 200.01C28 89.5697 28.11 0 28.26 0C28.41 0 28.52 89.5294 28.52 200.01C28.52 310.491 28.4 400 28.26 400Z" fill="#263238"/>
<path d="M35.6799 400C35.5399 400 35.4199 310.45 35.4199 200.01C35.4199 89.5697 35.5399 0 35.6799 0C35.8199 0 35.9399 89.5294 35.9399 200.01C35.9399 310.491 35.8199 400 35.6799 400Z" fill="#263238"/>
<g opacity="0.3">
<path opacity="0.3" d="M35.69 0H28.26V400H35.69V0Z" fill="#455A64"/>
</g>
<path d="M191.82 45.7019V0H235.5V46.5484L214.08 68.1346L191.82 45.7019Z" fill="#455A64"/>
<path d="M278.82 15.3885C278.96 15.3885 279.08 100.403 279.08 205.25C279.08 310.098 278.96 395.133 278.82 395.133C278.68 395.133 278.56 310.138 278.56 205.25C278.56 100.363 278.7 15.3885 278.82 15.3885Z" fill="#263238"/>
<path d="M283.32 15.3885C283.46 15.3885 283.58 100.403 283.58 205.25C283.58 310.098 283.46 395.133 283.32 395.133C283.18 395.133 283.06 310.138 283.06 205.25C283.06 100.363 283.17 15.3885 283.32 15.3885Z" fill="#263238"/>
<path d="M278.85 70.6238H289.79L299.79 78.2626L290.82 87.2921H278.85V70.6238Z" fill="#455A64"/>
<path d="M303.98 103.356H283.32V117.223H303.98V103.356Z" fill="#10B981"/>
<path d="M241.63 355.114C241.63 355.266 204.09 355.376 157.8 355.376C111.51 355.376 73.96 355.266 73.96 355.114C73.96 354.963 111.49 354.852 157.8 354.852C204.11 354.852 241.63 354.973 241.63 355.114Z" fill="#455A64"/>
<path d="M213.66 363.166C213.66 363.307 188.97 363.428 158.53 363.428C128.09 363.428 103.39 363.307 103.39 363.166C103.39 363.025 128.08 362.904 158.53 362.904C188.98 362.904 213.66 363.015 213.66 363.166Z" fill="#455A64"/>
<path d="M164.4 370.896H151.19V384.208H164.4V370.896Z" fill="#42555F"/>
</svg>
