<svg width="422" height="401" viewBox="0 0 422 401" fill="none" xmlns="http://www.w3.org/2000/svg">
<path d="M314.187 174.56C351.656 174.56 382.03 144.202 382.03 106.755C382.03 69.3075 351.656 38.9503 314.187 38.9503C276.718 38.9503 246.344 69.3075 246.344 106.755C246.344 144.202 276.718 174.56 314.187 174.56Z" fill="#263238"/>
<path d="M406.866 154.128L383.092 219.237L278.092 194.564L264.547 188.274L264.65 188.038L304.946 97.0181L323.591 107.462L406.866 154.128Z" fill="#455A64"/>
<path d="M323.59 107.462L283.722 191.205C274.362 191.618 268.408 190.203 264.65 188.038L304.946 97.0181L323.59 107.462Z" fill="#10B981"/>
<path d="M406.866 154.128L383.092 219.237L278.092 194.549L264.547 188.259L304.946 97.0181L406.866 154.128Z" stroke="#455A64" stroke-linecap="round" stroke-linejoin="round"/>
<path d="M290.87 140.429C290.87 140.429 311.505 178.419 343.694 184.738C375.884 191.058 398.125 160.3 398.125 160.3L311.652 119.453L290.87 140.429Z" fill="#10B981"/>
<path d="M1.69263 155.528L23.5062 130.191L11.9362 125.345L9.6369 130.265L1.69263 155.528Z" fill="white"/>
<path d="M76.478 173.087L62.1075 196.493L84.437 180.511L87.9154 176.754L77.2297 169.566L76.478 173.087Z" fill="white"/>
<path d="M270.162 177.152L272.329 170.774L269.071 184.562L283.81 191.205C283.81 191.205 310.208 185.121 335.839 194.858C361.47 204.595 316.84 226.308 316.84 226.308L283.81 237.312L247.199 236.118L253.094 208.455C253.094 208.455 257.708 183.295 270.162 177.152Z" fill="#263238"/>
<path d="M378.817 354.39C372.376 369.813 364.771 384.381 348.676 391.496C333.937 398.007 303.177 402.824 278.607 398.066C274.254 397.266 269.985 396.058 265.858 394.457C249.115 387.843 219.578 366.911 200.432 349.293C190.41 340.072 183.247 331.764 182.23 326.873C180.196 317.077 195.303 282.549 211.707 252.705C218.199 240.648 225.414 228.994 233.315 217.808C254.067 189.349 269.174 178.036 269.174 178.036C269.174 178.036 248.142 207.792 261.215 216.674C274.289 225.557 301.526 195.344 329.398 194.578C341.867 194.254 356.827 199.587 369.546 205.567C379.245 210.165 388.603 215.447 397.55 221.373C403.785 265.638 395.988 313.277 378.817 354.39Z" fill="#455A64"/>
<path d="M317.327 231.906C315.617 234.852 314.01 237.798 312.492 240.847C289.038 287.027 274.806 337.33 270.589 388.948" stroke="#263238" stroke-linecap="round" stroke-linejoin="round"/>
<path d="M346.628 203.652C338.285 206.599 331.564 212.343 325.993 219.237" stroke="#263238" stroke-linecap="round" stroke-linejoin="round"/>
<path d="M378.817 354.39C372.376 369.813 364.771 384.381 348.676 391.496C333.937 398.007 303.177 402.824 278.608 398.066C274.82 358.706 309.058 250.142 328.528 226.573C348.514 202.386 369.429 205.538 369.429 205.538C379.127 210.135 388.485 215.417 397.433 221.344C403.785 265.638 395.988 313.277 378.817 354.39Z" fill="#10B981"/>
<path d="M143.746 32.955C129.45 22.9824 112.927 21.9808 106.899 30.716L74.1345 82.4496L112.633 110.438C112.633 110.438 157.63 68.161 158.588 66.7763C164.69 58.0853 158.043 42.9276 143.746 32.955Z" fill="#263238"/>
<path d="M112.691 109.333C108.152 115.844 95.8449 115.092 85.1886 107.668C74.5324 100.244 69.5949 89.0194 74.1344 82.4496C78.674 75.8798 90.981 76.69 101.637 84.1141C112.293 91.5383 117.231 102.837 112.691 109.333Z" fill="#455A64" stroke="#263238" stroke-linecap="round" stroke-linejoin="round"/>
<path d="M82.6831 130.191L86.7068 124.328L62.8298 108.11L58.5408 113.487" fill="#455A64"/>
<path d="M82.6831 130.191L86.7068 124.328L62.8298 108.11L58.5408 113.487" stroke="#263238" stroke-linecap="round" stroke-linejoin="round"/>
<path d="M76.9348 172.35L61.2231 197.127L85.5423 179.73" fill="#42555F"/>
<path d="M76.9348 172.35L61.2231 197.127L85.5423 179.73" stroke="#42555F" stroke-linecap="round" stroke-linejoin="round"/>
<path d="M21.0449 132.975L1 156.338L10.7866 127.849" fill="#42555F"/>
<path d="M21.0449 132.975L1 156.338L10.7866 127.849" stroke="#42555F" stroke-linecap="round" stroke-linejoin="round"/>
<path d="M96.2428 89.0194C88.5638 83.6722 79.293 83.4807 76.021 88.165L71.7467 91.7593L75.7704 95.2062C77.4277 99.6194 80.4476 103.391 84.3927 105.974C87.2889 108.047 90.6043 109.46 94.1056 110.114L98.4389 114.268C98.4389 114.268 103.819 107.727 104.202 107.182C107.4 102.542 103.833 94.4108 96.2428 89.0194Z" fill="#263238"/>
<path d="M99.9425 111.734C96.6704 116.418 87.8123 115.888 80.1481 110.541C72.4839 105.194 68.9023 97.0623 72.1744 92.3779C75.4464 87.6936 84.3192 88.2387 91.9835 93.5859C99.6477 98.933 103.214 107.05 99.9425 111.734Z" fill="#455A64" stroke="#263238" stroke-linecap="round" stroke-linejoin="round"/>
<path d="M90.5683 103.249L79.2489 119.453L70.5087 113.369L81.5039 97.6662C83.2384 97.3392 85.0326 97.6147 86.5888 98.4469C87.5632 98.9078 88.4245 99.5766 89.1121 100.406C89.7997 101.236 90.2968 102.206 90.5683 103.249Z" fill="#263238"/>
<path d="M81.504 140.326L86.9426 133.108L54.1633 110.423L49.211 117.965L13.9408 122.178L10.6982 127.407L21.0155 132.961C31.9075 132.666 42.608 136.555 51.9672 141.961C60.899 147.146 68.8285 153.613 73.5155 162.996C74.2157 164.383 74.8357 165.81 75.3726 167.268C75.7558 168.255 76.1095 171.186 76.8465 171.834L85.5867 179.73L89.4188 174.928L81.504 140.326Z" fill="#42555F" stroke="#263238" stroke-linecap="round" stroke-linejoin="round"/>
<path d="M56.2561 119.173L46.9706 132.209L68.0177 147.234L77.2296 134.154L56.2561 119.173Z" fill="#10B981" stroke="#263238" stroke-linecap="round" stroke-linejoin="round"/>
<path d="M328.174 90.08C324.249 99.177 319.487 107.891 313.951 116.109C295.763 143.39 273.729 160.654 264.723 154.659L205.841 115.534L262.792 29.9205L266.536 24.3082L329.118 55.1392C329.605 55.3251 330.074 55.5569 330.518 55.8315C336.634 59.8677 335.249 73.3756 328.174 90.08Z" fill="#455A64"/>
<path d="M328.174 90.08L321.955 86.8835L289.809 67.6307L287.436 51.2061L267.936 40.0404L262.793 29.9205L266.536 24.3082L329.118 55.1392C329.605 55.3251 330.074 55.5569 330.518 55.8315C336.635 59.8677 335.249 73.3756 328.174 90.08Z" fill="#10B981"/>
<path d="M239.535 137.895C255.865 126.347 295.189 93.2029 298.49 40.0404" stroke="#263238" stroke-linecap="round" stroke-linejoin="round"/>
<path d="M330.591 55.8315C330.128 55.5464 329.633 55.3141 329.118 55.1392L266.536 24.3082L205.841 115.534L264.723 154.718C273.729 160.713 295.763 143.449 313.951 116.153C332.139 88.8574 339.582 61.8268 330.591 55.8315Z" stroke="#263238" stroke-linecap="round" stroke-linejoin="round"/>
<path d="M251.252 79.9012C234.479 105.076 214.154 120.999 205.841 115.534C197.529 110.069 204.368 85.1158 221.17 59.9413C237.972 34.7668 258.371 18.3129 266.728 23.8221C275.085 29.3313 268.04 54.7267 251.252 79.9012Z" fill="#263238"/>
<path d="M257.87 53.2389C254.941 60.641 251.21 67.6998 246.742 74.2889C233.934 93.4386 218.399 105.68 212.061 101.452C211.236 100.922 170.984 73.243 170.984 73.243L212.385 9.97536L212.739 10.1374L257.457 31.3494C257.804 31.4725 258.135 31.6356 258.444 31.8355C262.365 34.5164 261.864 42.7655 257.87 53.2389Z" fill="#455A64"/>
<path d="M257.87 53.239L239.534 43.4284L232.828 31.8502L214.935 22.732L212.68 10.1669L257.398 31.3788C257.745 31.5019 258.076 31.6651 258.386 31.8649C262.365 34.5164 261.864 42.7655 257.87 53.239Z" fill="#10B981"/>
<path d="M193.092 87.9588C202.289 82.0666 233.433 60.7221 233.757 20.6697" stroke="#263238" stroke-linecap="round" stroke-linejoin="round"/>
<path d="M224.471 98.933L211.089 89.8443C211.089 89.8443 217.279 84.232 222.88 78.8111L236.292 87.6495L224.471 98.933Z" fill="#10B981"/>
<path d="M257.87 53.2389C254.941 60.641 251.21 67.6998 246.742 74.2889C233.934 93.4386 218.399 105.68 212.061 101.452C211.236 100.922 170.984 73.243 170.984 73.243L212.385 9.97536L212.739 10.1374L257.457 31.3494C257.804 31.4725 258.135 31.6356 258.444 31.8355C262.365 34.5164 261.864 42.7655 257.87 53.2389Z" stroke="#263238" stroke-linecap="round" stroke-linejoin="round"/>
<path d="M191.972 54.491C213.291 54.491 230.573 48.7929 230.573 41.7639C230.573 34.7348 213.291 29.0367 191.972 29.0367C170.653 29.0367 153.371 34.7348 153.371 41.7639C153.371 48.7929 170.653 54.491 191.972 54.491Z" fill="#263238"/>
<path d="M189.378 50.2339C206.456 50.2339 220.3 45.6701 220.3 40.0404C220.3 34.4107 206.456 29.8469 189.378 29.8469C172.3 29.8469 158.456 34.4107 158.456 40.0404C158.456 45.6701 172.3 50.2339 189.378 50.2339Z" fill="#59717C" stroke="#263238" stroke-linecap="round" stroke-linejoin="round"/>
<path d="M351.86 167.798C383.907 167.798 409.887 141.833 409.887 109.804C409.887 77.7749 383.907 51.8101 351.86 51.8101C319.812 51.8101 293.833 77.7749 293.833 109.804C293.833 141.833 319.812 167.798 351.86 167.798Z" fill="#263238"/>
<path d="M362.973 174.177C395.02 174.177 421 148.212 421 116.183C421 84.1532 395.02 58.1884 362.973 58.1884C330.925 58.1884 304.946 84.1532 304.946 116.183C304.946 148.212 330.925 174.177 362.973 174.177Z" fill="#455A64" stroke="#263238" stroke-linecap="round" stroke-linejoin="round"/>
<path d="M367.026 144.318C385.056 144.318 399.673 129.71 399.673 111.69C399.673 93.6697 385.056 79.0616 367.026 79.0616C348.996 79.0616 334.379 93.6697 334.379 111.69C334.379 129.71 348.996 144.318 367.026 144.318Z" fill="#10B981"/>
<path d="M362.973 147.588C380.328 147.588 394.396 133.527 394.396 116.183C394.396 98.8377 380.328 84.777 362.973 84.777C345.618 84.777 331.55 98.8377 331.55 116.183C331.55 133.527 345.618 147.588 362.973 147.588Z" fill="#455A64" stroke="#263238" stroke-linecap="round" stroke-linejoin="round"/>
<path d="M377.27 116.182C377.273 119.009 376.437 121.773 374.868 124.125C373.298 126.477 371.066 128.31 368.454 129.394C365.842 130.478 362.967 130.763 360.193 130.213C357.419 129.663 354.87 128.304 352.869 126.306C350.868 124.308 349.505 121.762 348.952 118.99C348.399 116.218 348.681 113.344 349.763 110.733C350.845 108.121 352.677 105.888 355.029 104.318C357.38 102.747 360.145 101.909 362.973 101.909C366.762 101.909 370.396 103.412 373.077 106.088C375.758 108.765 377.266 112.395 377.27 116.182Z" fill="#263238"/>
<path d="M204.426 288.986L211.501 305.558C211.501 305.558 203.1 330.202 200.432 349.352C190.41 340.131 183.247 331.823 182.23 326.932C180.196 317.136 195.303 282.608 211.707 252.764L218.591 257.36C218.591 257.36 208.583 276.863 204.426 288.986Z" fill="#10B981"/>
<path d="M368.913 116.182C368.912 119.246 367.928 122.229 366.105 124.692C364.283 127.155 361.718 128.969 358.787 129.867C355.855 128.975 353.287 127.166 351.462 124.704C349.637 122.243 348.652 119.261 348.652 116.197C348.652 113.134 349.637 110.152 351.462 107.69C353.287 105.229 355.855 103.419 358.787 102.527C361.716 103.418 364.282 105.226 366.105 107.684C367.928 110.143 368.912 113.122 368.913 116.182V116.182Z" fill="#59717C" stroke="#263238" stroke-linecap="round" stroke-linejoin="round"/>
<path d="M397.536 221.358C397.536 221.358 357.195 193.842 329.324 194.549C301.453 195.256 274.215 225.483 261.142 216.645C248.068 207.806 269.101 178.007 269.101 178.007C269.101 178.007 253.994 189.379 233.241 217.779C212.489 246.179 179.252 312.629 182.23 326.859C185.207 341.088 240.345 384.308 265.858 394.442C291.371 404.577 331.255 399.185 348.676 391.496C364.771 384.367 372.362 369.813 378.817 354.39C395.988 313.277 403.785 265.624 397.536 221.358Z" stroke="#263238" stroke-linecap="round" stroke-linejoin="round"/>
<path d="M192.046 40.0404C189.588 43.828 185.968 46.7172 181.729 48.2747L146.134 27.3574C143.869 26.1003 142.1 24.1093 141.12 21.7125C140.139 19.3158 140.005 16.6567 140.74 14.1736C143.024 7.14711 152.708 2.6543 158.736 6.14544L194.109 29.2576L194.463 29.4786C195.126 31.9533 195.303 34.7374 192.046 40.0404Z" fill="#263238"/>
<path d="M164.941 19.3145C165.206 26.6061 168.095 36.8586 162.332 40.497C159.458 42.3089 150.114 40.497 145.839 39.8194C135.021 38.0812 125.706 31.6587 125.323 20.6697C125.23 18.0651 125.653 15.4679 126.566 13.0267C127.48 10.5856 128.866 8.34857 130.646 6.4438C132.426 4.53903 134.564 3.00396 136.939 1.9265C139.313 0.849051 141.877 0.250381 144.483 0.164824C152.634 -0.115056 169.937 -0.822122 173.224 6.05704C174.359 8.5023 164.838 16.5157 164.941 19.3145Z" fill="#263238"/>
<path d="M159.708 40.497C170.657 40.497 179.532 31.6266 179.532 20.6845C179.532 9.74228 170.657 0.871902 159.708 0.871902C148.76 0.871902 139.885 9.74228 139.885 20.6845C139.885 31.6266 148.76 40.497 159.708 40.497Z" fill="#59717C" stroke="#263238" stroke-linecap="round" stroke-linejoin="round"/>
<path d="M161.802 34.5164C161.828 34.8364 161.758 35.157 161.6 35.4367C161.442 35.7164 161.204 35.9423 160.917 36.0855C160.629 36.2286 160.305 36.2823 159.987 36.2396C159.668 36.1969 159.37 36.0598 159.131 35.8459C158.891 35.6321 158.721 35.3514 158.643 35.04C158.564 34.7286 158.581 34.4009 158.691 34.0992C158.801 33.7975 158.999 33.5356 159.259 33.3474C159.519 33.1592 159.83 33.0533 160.151 33.0434C160.563 33.027 160.966 33.1715 161.274 33.4463C161.582 33.7211 161.771 34.1049 161.802 34.5164Z" fill="#263238"/>
<path d="M160.843 7.67741C160.864 8.09224 160.721 8.49857 160.446 8.8096C160.17 9.12063 159.784 9.3117 159.37 9.34196C159.148 9.36981 158.924 9.35133 158.71 9.28773C158.497 9.22412 158.298 9.11678 158.129 8.97251C157.959 8.82824 157.821 8.65019 157.723 8.44972C157.626 8.24925 157.572 8.03073 157.563 7.80807C157.555 7.5854 157.593 7.36348 157.676 7.15639C157.758 6.9493 157.882 6.76159 158.041 6.60521C158.2 6.44882 158.39 6.32718 158.598 6.24803C158.806 6.16887 159.029 6.13395 159.252 6.14544C159.664 6.14516 160.06 6.30465 160.357 6.59037C160.654 6.8761 160.828 7.26577 160.843 7.67741V7.67741Z" fill="#263238"/>
<path d="M175.479 19.2409C175.505 19.5602 175.435 19.8801 175.278 20.1594C175.121 20.4386 174.884 20.6645 174.597 20.808C174.31 20.9514 173.987 21.0058 173.669 20.9642C173.352 20.9226 173.053 20.7869 172.813 20.5746C172.573 20.3622 172.402 20.0829 172.322 19.7726C172.242 19.4623 172.257 19.1352 172.365 18.8334C172.472 18.5315 172.668 18.2688 172.926 18.0789C173.184 17.889 173.493 17.7807 173.814 17.7678C174.229 17.7475 174.635 17.8902 174.947 18.1654C175.258 18.4407 175.449 18.8267 175.479 19.2409Z" fill="#263238"/>
<path d="M148.33 20.1984C148.357 20.5183 148.286 20.8389 148.129 21.1186C147.971 21.3983 147.733 21.6243 147.445 21.7674C147.158 21.9105 146.834 21.9642 146.515 21.9215C146.197 21.8788 145.899 21.7417 145.659 21.5279C145.419 21.314 145.25 21.0333 145.171 20.7219C145.093 20.4106 145.11 20.0829 145.219 19.7811C145.329 19.4794 145.527 19.2176 145.787 19.0294C146.048 18.8411 146.358 18.7352 146.679 18.7253C147.092 18.7089 147.495 18.8534 147.803 19.1282C148.111 19.4031 148.3 19.7868 148.33 20.1984V20.1984Z" fill="#263238"/>
<path d="M165.752 20.4783C165.78 21.6697 165.455 22.8429 164.818 23.8501C164.18 24.8574 163.259 25.6536 162.17 26.1387C161.081 26.6237 159.872 26.7758 158.697 26.5759C157.521 26.376 156.431 25.8329 155.564 25.0151C154.696 24.1973 154.09 23.1413 153.822 21.98C153.554 20.8188 153.636 19.6042 154.057 18.4892C154.478 17.3742 155.22 16.4087 156.189 15.7141C157.158 15.0196 158.311 14.6271 159.502 14.586C160.301 14.5585 161.097 14.6896 161.844 14.9716C162.592 15.2536 163.276 15.6809 163.857 16.2289C164.438 16.7768 164.905 17.4346 165.23 18.164C165.555 18.8934 165.733 19.68 165.752 20.4783V20.4783Z" fill="#263238"/>
</svg>
