<svg width="400" height="400" viewBox="0 0 400 400" fill="none" xmlns="http://www.w3.org/2000/svg">
<path d="M385.682 125.663C402.307 167.196 404.522 213.102 391.972 256.042C379.422 298.982 352.833 336.473 316.456 362.522C280.079 388.57 236.016 401.67 191.314 399.727C146.611 397.784 103.852 380.911 69.873 351.804C35.8944 322.698 12.6596 283.04 3.88426 239.174C-4.89106 195.307 1.30007 149.766 21.4675 109.832C41.635 69.8989 74.6138 37.8801 115.13 18.8967C155.646 -0.0867811 201.359 -4.93838 244.958 5.11775C276.403 12.3658 305.626 27.1154 330.132 48.1068C354.637 69.0983 373.696 95.7079 385.682 125.663V125.663Z" fill="#455A64"/>
<path d="M176.05 29.329C166.902 29.4904 155.17 32.7186 163.673 37.9105C172.175 43.1025 177.584 43.6136 177.665 50.339C177.745 57.0643 173.332 64.1663 175.485 68.9547C177.638 73.7431 181.216 79.3117 184.714 77.6976C188.212 76.0836 197.71 65.4575 203.145 65.9418C208.581 66.426 227.093 67.2599 229.783 61.2071C232.474 55.1543 235.165 55.5578 239.631 48.8325C244.098 42.1071 243.829 33.149 238.421 33.0952C233.012 33.0414 232.286 35.3818 223.245 34.7093C214.204 34.0367 210.007 28.0915 201.208 29.6518C192.41 31.2121 182.804 29.2214 176.05 29.329Z" fill="#10B981"/>
<path d="M142.066 31.7232C131.707 37.2649 109.778 45.6312 99.7413 42.8066C94.7097 41.3808 88.7363 39.3901 82.3594 38.2064C43.3663 66.5654 15.9024 108.025 5.00171 154.985C7.4138 160.01 10.4515 164.711 14.0425 168.974C21.9531 178.255 30.1867 179.439 40.1692 181.376C50.1517 183.312 47.0574 188.962 51.9814 194.826C56.9054 200.691 59.031 204.188 64.6546 207.362C70.2782 210.537 62.6634 216.482 60.4571 222.965C58.2507 229.448 57.6049 233.08 62.2329 246.208C66.8609 259.336 80.2607 270.043 84.2429 275.127C88.2251 280.211 81.5522 286.13 83.1935 296.648C84.8349 307.166 84.3774 335.628 94.6021 351.527C104.827 367.425 110.962 365.596 110.127 354.863C109.293 344.129 105.849 333.987 112.038 325.917C118.226 317.846 130.873 319.998 135.124 305.256C139.375 290.514 142.147 291.241 148.981 286.237C155.816 281.233 152.748 276.929 159.098 265.55C165.448 254.171 167.305 243.437 157.914 238.649C148.524 233.86 142.335 234.452 134.263 223.369C125.58 211.848 114.582 202.272 101.975 195.257C90.3508 188.962 71.8926 196.656 64.5201 194.503C57.1475 192.351 52.4657 178.363 52.95 172.982C53.4344 167.602 47.9453 166.149 42.6446 167.468C37.344 168.786 34.3842 165.423 32.9312 158.321C31.4782 151.219 42.5101 142.18 51.4701 141.588C60.4302 140.997 65.2196 145.059 66.9955 156.599C67.5475 161.267 69.5503 165.644 72.7216 169.114C75.893 172.584 80.0731 174.972 84.6734 175.941C92.9338 178.013 87.7677 169.431 81.9827 163.567C76.1977 157.702 75.7134 152.349 80.1261 139.356C84.5389 126.362 95.4093 127.385 103.508 115.494C111.607 103.604 113.168 112.535 121.348 113.719C129.527 114.902 128.317 110.49 131.33 102.958C134.344 95.4257 144.784 101.936 153.286 95.883C161.789 89.8302 144.003 80.3878 145.214 72.2098C146.425 64.0318 154.524 64.3277 150.004 52.0607C145.483 39.7936 151.726 39.3363 154.955 34.7631C158.183 30.1898 152.452 26.1815 142.066 31.7232ZM129.958 61.6376C127.267 67.6904 124.953 66.5336 120.514 73.1513C116.874 78.6921 111.184 82.5623 104.692 83.9119C100.226 84.4499 92.88 76.514 92.5033 71.5911C92.1266 66.6681 99.2032 65.2154 107.221 64.1932C115.417 62.8891 123.091 59.3415 129.393 53.9438C135.151 49.5319 132.676 55.6116 129.958 61.6376V61.6376Z" fill="#10B981"/>
<path d="M399.378 184.765V185.33C397.596 186.034 395.975 187.094 394.615 188.444C393.255 189.795 392.184 191.408 391.468 193.185C386.92 204.349 386.086 199.453 375.323 207.04C364.561 214.626 368.731 220.49 369.296 228.157C369.861 235.824 357.511 244.298 351.403 246.988C345.295 249.678 342.578 267.003 344.596 275.423C346.614 283.843 336.523 287.259 330.335 294.926C324.146 302.593 320.648 315.452 316.612 321.612C314.674 324.703 311.881 327.164 308.571 328.697C305.261 330.23 301.576 330.768 297.966 330.248C290.647 329.01 283.866 316.797 279.938 306.413C275.815 295.752 274.771 284.147 276.924 272.921C279.211 261.515 278.404 262.941 275.687 245.132C275.075 239.191 272.605 233.595 268.63 229.137C264.655 224.68 259.375 221.588 253.542 220.302C246.654 218.58 235.272 222.589 229.138 219.011C223.003 215.433 220.393 210.241 216.384 193.481C212.374 176.722 220.689 172.902 227.146 163.89C234.917 153.671 245.645 146.091 257.874 142.18C262.263 140.943 266.856 140.605 271.378 141.187C275.9 141.77 280.258 143.261 284.189 145.57C291.212 149.067 294.522 156.922 299.526 157.46C304.531 157.998 308.809 155.389 313.814 156.357C318.819 157.326 322.182 159.774 327.052 159.047C331.922 158.321 328.828 152.618 328.128 149.524C327.429 146.431 323.016 147.211 317.15 147.157C311.285 147.103 309.832 145.516 307.76 141.615C305.688 137.715 302.378 141.158 299.499 139.571C296.62 137.984 297.212 145.139 296.97 147.91C296.728 150.681 294.575 145.785 294.575 145.785C294.575 145.785 292.154 149.578 291.104 147.83C290.055 146.081 292.477 141.911 292.127 137.607C291.777 133.303 285.588 134.325 281.714 131.016C279.676 129.446 277.265 128.435 274.717 128.081C272.169 127.727 269.572 128.043 267.184 128.999C261.803 130.747 260.942 129.483 258.601 134.137C256.26 138.791 244.771 141.938 241.138 141.319C237.506 140.701 240.062 133.249 243.183 126.793C246.304 120.336 252.735 122.435 256.637 115.844C260.538 109.253 255.157 108.311 251.47 107.262C247.784 106.213 246.627 102.662 250.475 94.2689C254.323 85.8757 259.435 88.1892 261.561 92.063C262.814 93.9926 264.559 95.5532 266.616 96.5841C268.674 97.6149 270.969 98.0786 273.265 97.9275C278.189 97.9275 277.032 94.511 276.924 87.1669C276.817 79.8229 280.126 76.1374 286.665 73.3934C293.203 70.6495 304.127 66.2108 308.19 62.2832C312.253 58.3556 319.787 60.9381 323.689 65.1616C327.59 69.3851 336.281 70.9454 345.403 72.4788C346.571 72.6575 347.764 72.5582 348.886 72.1889C350.008 71.8197 351.027 71.1908 351.86 70.3536C379.468 102.467 396.113 142.546 399.378 184.765V184.765Z" fill="#10B981"/>
<path d="M361.95 283.17C357.08 282.336 357.51 283.951 354.658 287.771C351.806 291.591 347.635 295.841 348.389 299.93C349.142 304.019 349.519 308.834 352.882 305.902C356.246 302.97 355.089 299.419 359.878 297.267C364.668 295.115 369.242 284.408 361.95 283.17Z" fill="#10B981"/>
<g style="mix-blend-mode:soft-light" opacity="0.4">
<path d="M252.089 22.765C124.738 -14.0091 100.952 72.8016 168.462 127.492C235.971 182.183 351.645 200.126 367.224 164.159C382.803 128.192 346.775 50.0699 252.089 22.765Z" fill="white"/>
</g>
<g style="mix-blend-mode:multiply" opacity="0.05">
<path d="M145.779 300.253C46.788 219.064 49.8823 61.4223 136.631 10.4711C132.971 11.7086 129.312 12.9999 125.679 14.4525C95.0838 26.6953 67.9887 46.3082 46.8041 71.5468C25.6194 96.7853 11.002 126.867 4.25171 159.117C-2.49854 191.366 -1.1723 224.784 8.11249 256.398C17.3973 288.011 34.3528 316.84 57.4709 340.321C80.5891 363.802 109.153 381.207 140.623 390.988C172.093 400.769 205.492 402.622 237.851 396.383C270.21 390.144 300.525 376.006 326.1 355.227C351.675 334.448 371.717 307.671 384.444 277.279C356.488 315.936 244.689 381.28 145.779 300.253Z" fill="black"/>
</g>
</svg>
