<svg width="417" height="418" viewBox="0 0 417 418" fill="none" xmlns="http://www.w3.org/2000/svg">
<path fill-rule="evenodd" clip-rule="evenodd" d="M1.84588e-05 417.62L194.435 417.62C194.435 310.244 107.396 223.203 0.0231917 223.203H1.84588e-05L1.84588e-05 417.62Z" fill="#56C288"/>
<path d="M104.189 1.00002C46.6505 1.00002 0.00595093 47.6324 0.00595093 105.156C0.00595093 162.68 46.6505 209.313 104.189 209.313C161.728 209.313 208.373 162.68 208.373 105.156C208.373 47.6324 161.728 1.00002 104.189 1.00002Z" fill="#CCD1D7"/>
<path d="M312.51 209.32C254.971 209.32 208.326 255.953 208.326 313.477C208.326 371.001 254.971 417.633 312.51 417.633C370.049 417.633 416.693 371.001 416.693 313.477C416.693 255.953 370.049 209.32 312.51 209.32Z" fill="#003C1C"/>
<path fill-rule="evenodd" clip-rule="evenodd" d="M222.223 177.959C222.223 182.305 395.571 -2.88938 398.908 0.3703C402.188 3.62998 235.292 195.347 240.009 195.347L398.908 195.347C403.627 195.347 408.116 193.715 411.456 190.456C414.793 187.196 416.693 182.305 416.693 177.959L416.693 18.7573C416.693 14.411 414.793 9.51996 411.456 6.26028C408.116 3.00061 403.627 0.3703 398.908 0.3703L240.009 1.3703C235.286 1.3703 230.738 3.00061 227.46 6.26028C224.12 9.51996 222.223 14.411 222.223 18.7573L222.223 177.959Z" fill="#6875EC"/>
</svg>
